<svg width="110" height="45" viewBox="0 0 110 45" fill="none" xmlns="http://www.w3.org/2000/svg">
<path d="M49.899 5.136C49.5577 4.58133 48.9603 4.304 48.107 4.304C47.2537 4.304 46.443 4.41066 45.675 4.624C44.9497 4.83733 44.075 5.136 43.051 5.52C41.387 6.20266 40.043 6.84267 39.019 7.44C35.179 9.488 31.595 11.8987 28.267 14.672C24.939 17.4027 23.1897 19.4507 23.019 20.816C22.9337 21.8827 23.5097 22.7573 24.747 23.44C25.8137 24.08 27.051 24.6987 28.459 25.296C29.867 25.8507 30.891 26.2773 31.531 26.576C34.9443 28.2827 36.651 30.544 36.651 33.36C36.651 34.5973 36.2883 35.792 35.563 36.944C34.411 38.736 32.6617 40.2293 30.315 41.424C28.011 42.576 25.5363 43.3867 22.891 43.856C20.1603 44.3253 17.899 44.56 16.107 44.56C12.8643 44.56 9.62167 43.856 6.379 42.448C3.13633 41.0827 1.131 38.928 0.363 35.984C1.94167 37.392 4.11767 38.3947 6.891 38.992C9.66433 39.5893 12.3097 39.888 14.827 39.888C18.5817 39.8453 21.355 39.5467 23.147 38.992C24.9817 38.4373 26.5603 37.7973 27.883 37.072C29.2483 36.304 30.4857 35.4293 31.595 34.448C32.747 33.424 33.323 32.3147 33.323 31.12C33.323 29.8827 32.5123 28.7733 30.891 27.792C30.763 27.7067 29.4617 27.1733 26.987 26.192C24.555 25.2107 22.6777 24.1227 21.355 22.928C20.075 21.7333 19.435 20.368 19.435 18.832C19.435 15.9307 21.227 12.9867 24.811 10C28.395 6.97066 32.299 4.624 36.523 2.96C40.7897 1.296 44.4163 0.463997 47.403 0.463997C49.4937 0.463997 51.115 0.847997 52.267 1.616C53.419 2.34133 53.995 3.36533 53.995 4.688C53.995 4.85866 53.995 5.05066 53.995 5.264C53.867 6.58666 51.5417 9.33866 47.019 13.52C45.355 15.056 43.883 16.784 42.603 18.704C41.3657 20.5813 40.747 22.2453 40.747 23.696C40.747 23.824 40.747 23.952 40.747 24.08C39.4243 23.056 38.763 21.6907 38.763 19.984C38.763 18.448 39.4243 16.5707 40.747 14.352C42.667 11.1093 45.7177 8.03733 49.899 5.136ZM50.145 20.048C51.0837 18.64 51.8303 17.5307 52.385 16.72C52.9823 15.8667 53.4517 15.248 53.793 14.864C54.1343 14.48 54.9023 14.16 56.097 13.904C57.2917 13.6053 58.4437 13.456 59.553 13.456C60.6623 13.456 61.217 13.584 61.217 13.84C61.217 14.0533 60.2997 15.0347 58.465 16.784C56.6303 18.5333 54.497 20.8587 52.065 23.76C54.9663 24.2293 56.865 25.1467 57.761 26.512C58.1023 27.1093 58.145 27.4933 57.889 27.664C57.6757 27.8347 57.4197 27.7707 57.121 27.472C56.225 26.576 54.7957 26.128 52.833 26.128C51.9797 26.128 51.0197 26.2133 49.953 26.384C46.497 30.8213 44.321 34.448 43.425 37.264C43.1263 38.0747 42.977 38.7573 42.977 39.312C42.977 40.8053 43.5957 41.552 44.833 41.552C46.1557 41.552 48.0117 40.6347 50.401 38.8C53.5157 36.4533 56.225 34.128 58.529 31.824C58.9557 31.3547 59.233 31.248 59.361 31.504C59.489 31.76 59.3823 32.0373 59.041 32.336C55.3717 36.176 52.2783 39.0133 49.761 40.848C47.2863 42.64 45.0037 43.536 42.913 43.536C40.0543 43.536 38.625 42.0213 38.625 38.992C38.625 37.5413 39.0303 35.8133 39.841 33.808L38.689 34.896C38.3477 35.2373 38.113 35.344 37.985 35.216C37.8143 35.0453 37.729 34.896 37.729 34.768C37.729 34.64 37.8997 34.4267 38.241 34.128C41.3557 31.3973 43.489 29.328 44.641 27.92C43.8303 28.2187 43.2757 28.24 42.977 27.984C42.721 27.728 42.529 27.3867 42.401 26.96C42.3157 26.5333 42.529 26.0213 43.041 25.424C43.5957 24.784 44.385 24.336 45.409 24.08C46.4757 23.7813 47.265 23.6107 47.777 23.568C48.417 22.6293 49.2063 21.456 50.145 20.048ZM105.399 5.136C105.058 4.58133 104.46 4.304 103.607 4.304C102.754 4.304 101.943 4.41066 101.175 4.624C100.45 4.83733 99.575 5.136 98.551 5.52C96.887 6.20266 95.543 6.84267 94.519 7.44C90.679 9.488 87.095 11.8987 83.767 14.672C80.439 17.4027 78.6897 19.4507 78.519 20.816C78.4337 21.8827 79.0097 22.7573 80.247 23.44C81.3137 24.08 82.551 24.6987 83.959 25.296C85.367 25.8507 86.391 26.2773 87.031 26.576C90.4443 28.2827 92.151 30.544 92.151 33.36C92.151 34.5973 91.7883 35.792 91.063 36.944C89.911 38.736 88.1617 40.2293 85.815 41.424C83.511 42.576 81.0363 43.3867 78.391 43.856C75.6603 44.3253 73.399 44.56 71.607 44.56C68.3643 44.56 65.1217 43.856 61.879 42.448C58.6363 41.0827 56.631 38.928 55.863 35.984C57.4417 37.392 59.6177 38.3947 62.391 38.992C65.1643 39.5893 67.8097 39.888 70.327 39.888C74.0817 39.8453 76.855 39.5467 78.647 38.992C80.4817 38.4373 82.0603 37.7973 83.383 37.072C84.7483 36.304 85.9857 35.4293 87.095 34.448C88.247 33.424 88.823 32.3147 88.823 31.12C88.823 29.8827 88.0123 28.7733 86.391 27.792C86.263 27.7067 84.9617 27.1733 82.487 26.192C80.055 25.2107 78.1777 24.1227 76.855 22.928C75.575 21.7333 74.935 20.368 74.935 18.832C74.935 15.9307 76.727 12.9867 80.311 10C83.895 6.97066 87.799 4.624 92.023 2.96C96.2897 1.296 99.9163 0.463997 102.903 0.463997C104.994 0.463997 106.615 0.847997 107.767 1.616C108.919 2.34133 109.495 3.36533 109.495 4.688C109.495 4.85866 109.495 5.05066 109.495 5.264C109.367 6.58666 107.042 9.33866 102.519 13.52C100.855 15.056 99.383 16.784 98.103 18.704C96.8657 20.5813 96.247 22.2453 96.247 23.696C96.247 23.824 96.247 23.952 96.247 24.08C94.9243 23.056 94.263 21.6907 94.263 19.984C94.263 18.448 94.9243 16.5707 96.247 14.352C98.167 11.1093 101.218 8.03733 105.399 5.136Z" fill="#B460FF"/>
</svg>
